{
	"asset":{
		"generator":"Khronos glTF Blender I/O v3.5.30",
		"version":"2.0"
	},
	"scene":0,
	"scenes":[
		{
			"name":"Scene",
			"nodes":[
				0,
				1,
				2
			]
		}
	],
	"nodes":[
		{
			"mesh":0,
			"name":"Cube",
			"scale":[
				0.08115166425704956,
				0.08115166425704956,
				0.08115166425704956
			]
		},
		{
			"mesh":1,
			"name":"Cube.001",
			"scale":[
				0.08115166425704956,
				0.08115166425704956,
				0.08115166425704956
			],
			"translation":[
				0,
				0,
				-0.38077133893966675
			]
		},
		{
			"mesh":2,
			"name":"Cube.002",
			"scale":[
				0.08115166425704956,
				0.08115166425704956,
				0.08115166425704956
			],
			"translation":[
				0,
				0,
				0.4094996452331543
			]
		}
	],
	"materials":[
		{
			"doubleSided":true,
			"name":"Material.001",
			"pbrMetallicRoughness":{
				"baseColorFactor":[
					0.2589276432991028,
					0.8000000715255737,
					0.32236337661743164,
					1
				],
				"metallicFactor":0,
				"roughnessFactor":0.5
			}
		},
		{
			"doubleSided":true,
			"emissiveFactor":[
				1,
				0.06917359679937363,
				0.057596608996391296
			],
			"name":"Material.002",
			"pbrMetallicRoughness":{
				"baseColorFactor":[
					0.8000000715255737,
					0.0629461407661438,
					0.1289859563112259,
					1
				],
				"metallicFactor":0,
				"roughnessFactor":0.5
			}
		},
		{
			"doubleSided":true,
			"emissiveFactor":[
				0.012433240190148354,
				0.48882782459259033,
				1
			],
			"name":"Material.003",
			"pbrMetallicRoughness":{
				"baseColorFactor":[
					0.06325221061706543,
					0.0321921780705452,
					0.8000000715255737,
					1
				],
				"metallicFactor":0,
				"roughnessFactor":0.5
			}
		},
		{
			"doubleSided":true,
			"emissiveFactor":[
				0.10246723890304565,
				1,
				0.0654897466301918
			],
			"name":"Material.004",
			"pbrMetallicRoughness":{
				"baseColorFactor":[
					0.2589276432991028,
					0.8000000715255737,
					0.32236337661743164,
					1
				],
				"metallicFactor":0,
				"roughnessFactor":0.5
			}
		},
		{
			"doubleSided":true,
			"name":"Material.005",
			"pbrMetallicRoughness":{
				"baseColorTexture":{
					"index":0
				},
				"metallicFactor":0,
				"roughnessFactor":0.5
			}
		}
	],
	"meshes":[
		{
			"name":"Cube.001",
			"primitives":[
				{
					"attributes":{
						"POSITION":0,
						"TEXCOORD_0":1,
						"NORMAL":2
					},
					"indices":3,
					"material":0
				},
				{
					"attributes":{
						"POSITION":4,
						"TEXCOORD_0":5,
						"NORMAL":6
					},
					"indices":7,
					"material":1
				},
				{
					"attributes":{
						"POSITION":8,
						"TEXCOORD_0":9,
						"NORMAL":10
					},
					"indices":11,
					"material":2
				}
			]
		},
		{
			"name":"Cube.004",
			"primitives":[
				{
					"attributes":{
						"POSITION":12,
						"TEXCOORD_0":13,
						"NORMAL":14
					},
					"indices":3,
					"material":3
				},
				{
					"attributes":{
						"POSITION":15,
						"TEXCOORD_0":16,
						"NORMAL":17
					},
					"indices":7,
					"material":1
				},
				{
					"attributes":{
						"POSITION":18,
						"TEXCOORD_0":19,
						"NORMAL":20
					},
					"indices":11,
					"material":2
				}
			]
		},
		{
			"name":"Cube.005",
			"primitives":[
				{
					"attributes":{
						"POSITION":21,
						"TEXCOORD_0":22,
						"NORMAL":23
					},
					"indices":24,
					"material":4
				}
			]
		}
	],
	"textures":[
		{
			"sampler":0,
			"source":0
		}
	],
	"images":[
		{
			"bufferView":25,
			"mimeType":"image/png",
			"name":"TEXTURA CUERPO7.final"
		}
	],
	"accessors":[
		{
			"bufferView":0,
			"componentType":5126,
			"count":104,
			"max":[
				1.1529144048690796,
				7.397651672363281,
				1.1529144048690796
			],
			"min":[
				-1.1529144048690796,
				0.2767695188522339,
				-1.1529144048690796
			],
			"type":"VEC3"
		},
		{
			"bufferView":1,
			"componentType":5126,
			"count":104,
			"type":"VEC2"
		},
		{
			"bufferView":2,
			"componentType":5126,
			"count":104,
			"type":"VEC3"
		},
		{
			"bufferView":3,
			"componentType":5123,
			"count":180,
			"type":"SCALAR"
		},
		{
			"bufferView":4,
			"componentType":5126,
			"count":16,
			"max":[
				1.1529144048690796,
				6.596009254455566,
				1.1529144048690796
			],
			"min":[
				-1.1529144048690796,
				6.160921096801758,
				-1.1529144048690796
			],
			"type":"VEC3"
		},
		{
			"bufferView":5,
			"componentType":5126,
			"count":16,
			"type":"VEC2"
		},
		{
			"bufferView":6,
			"componentType":5126,
			"count":16,
			"type":"VEC3"
		},
		{
			"bufferView":7,
			"componentType":5123,
			"count":24,
			"type":"SCALAR"
		},
		{
			"bufferView":8,
			"componentType":5126,
			"count":16,
			"max":[
				1,
				1.6167128086090088,
				1
			],
			"min":[
				-1,
				0.936826229095459,
				-1
			],
			"type":"VEC3"
		},
		{
			"bufferView":9,
			"componentType":5126,
			"count":16,
			"type":"VEC2"
		},
		{
			"bufferView":10,
			"componentType":5126,
			"count":16,
			"type":"VEC3"
		},
		{
			"bufferView":11,
			"componentType":5123,
			"count":24,
			"type":"SCALAR"
		},
		{
			"bufferView":12,
			"componentType":5126,
			"count":104,
			"max":[
				1.1529144048690796,
				7.397651672363281,
				1.1529144048690796
			],
			"min":[
				-1.1529144048690796,
				0.2767695188522339,
				-1.1529144048690796
			],
			"type":"VEC3"
		},
		{
			"bufferView":13,
			"componentType":5126,
			"count":104,
			"type":"VEC2"
		},
		{
			"bufferView":14,
			"componentType":5126,
			"count":104,
			"type":"VEC3"
		},
		{
			"bufferView":15,
			"componentType":5126,
			"count":16,
			"max":[
				1.1529144048690796,
				6.596009254455566,
				1.1529144048690796
			],
			"min":[
				-1.1529144048690796,
				6.160921096801758,
				-1.1529144048690796
			],
			"type":"VEC3"
		},
		{
			"bufferView":16,
			"componentType":5126,
			"count":16,
			"type":"VEC2"
		},
		{
			"bufferView":17,
			"componentType":5126,
			"count":16,
			"type":"VEC3"
		},
		{
			"bufferView":18,
			"componentType":5126,
			"count":16,
			"max":[
				1,
				1.6167128086090088,
				1
			],
			"min":[
				-1,
				0.936826229095459,
				-1
			],
			"type":"VEC3"
		},
		{
			"bufferView":19,
			"componentType":5126,
			"count":16,
			"type":"VEC2"
		},
		{
			"bufferView":20,
			"componentType":5126,
			"count":16,
			"type":"VEC3"
		},
		{
			"bufferView":21,
			"componentType":5126,
			"count":104,
			"max":[
				1.1529144048690796,
				7.397651672363281,
				1.1529144048690796
			],
			"min":[
				-1.1529144048690796,
				0.2767695188522339,
				-1.1529144048690796
			],
			"type":"VEC3"
		},
		{
			"bufferView":22,
			"componentType":5126,
			"count":104,
			"type":"VEC2"
		},
		{
			"bufferView":23,
			"componentType":5126,
			"count":104,
			"type":"VEC3"
		},
		{
			"bufferView":24,
			"componentType":5123,
			"count":228,
			"type":"SCALAR"
		}
	],
	"bufferViews":[
		{
			"buffer":0,
			"byteLength":1248,
			"byteOffset":0,
			"target":34962
		},
		{
			"buffer":0,
			"byteLength":832,
			"byteOffset":1248,
			"target":34962
		},
		{
			"buffer":0,
			"byteLength":1248,
			"byteOffset":2080,
			"target":34962
		},
		{
			"buffer":0,
			"byteLength":360,
			"byteOffset":3328,
			"target":34963
		},
		{
			"buffer":0,
			"byteLength":192,
			"byteOffset":3688,
			"target":34962
		},
		{
			"buffer":0,
			"byteLength":128,
			"byteOffset":3880,
			"target":34962
		},
		{
			"buffer":0,
			"byteLength":192,
			"byteOffset":4008,
			"target":34962
		},
		{
			"buffer":0,
			"byteLength":48,
			"byteOffset":4200,
			"target":34963
		},
		{
			"buffer":0,
			"byteLength":192,
			"byteOffset":4248,
			"target":34962
		},
		{
			"buffer":0,
			"byteLength":128,
			"byteOffset":4440,
			"target":34962
		},
		{
			"buffer":0,
			"byteLength":192,
			"byteOffset":4568,
			"target":34962
		},
		{
			"buffer":0,
			"byteLength":48,
			"byteOffset":4760,
			"target":34963
		},
		{
			"buffer":0,
			"byteLength":1248,
			"byteOffset":4808,
			"target":34962
		},
		{
			"buffer":0,
			"byteLength":832,
			"byteOffset":6056,
			"target":34962
		},
		{
			"buffer":0,
			"byteLength":1248,
			"byteOffset":6888,
			"target":34962
		},
		{
			"buffer":0,
			"byteLength":192,
			"byteOffset":8136,
			"target":34962
		},
		{
			"buffer":0,
			"byteLength":128,
			"byteOffset":8328,
			"target":34962
		},
		{
			"buffer":0,
			"byteLength":192,
			"byteOffset":8456,
			"target":34962
		},
		{
			"buffer":0,
			"byteLength":192,
			"byteOffset":8648,
			"target":34962
		},
		{
			"buffer":0,
			"byteLength":128,
			"byteOffset":8840,
			"target":34962
		},
		{
			"buffer":0,
			"byteLength":192,
			"byteOffset":8968,
			"target":34962
		},
		{
			"buffer":0,
			"byteLength":1248,
			"byteOffset":9160,
			"target":34962
		},
		{
			"buffer":0,
			"byteLength":832,
			"byteOffset":10408,
			"target":34962
		},
		{
			"buffer":0,
			"byteLength":1248,
			"byteOffset":11240,
			"target":34962
		},
		{
			"buffer":0,
			"byteLength":456,
			"byteOffset":12488,
			"target":34963
		},
		{
			"buffer":0,
			"byteLength":2016978,
			"byteOffset":12944
		}
	],
	"samplers":[
		{
			"magFilter":9729,
			"minFilter":9987
		}
	],
	"buffers":[
		{
			"byteLength":2029924,
			"uri":"data:application/octet-stream;base64,"
		}
	]
}
