{
	"asset":{
		"generator":"Khronos glTF Blender I/O v3.5.30",
		"version":"2.0"
	},
	"scene":0,
	"scenes":[
		{
			"name":"Scene",
			"nodes":[
				0
			]
		}
	],
	"nodes":[
		{
			"mesh":0,
			"name":"Cube",
			"translation":[
				0,
				1,
				0
			]
		}
	],
	"materials":[
		{
			"doubleSided":true,
			"name":"Material.001",
			"pbrMetallicRoughness":{
				"baseColorFactor":[
					0.2589276432991028,
					0.8000000715255737,
					0.32236337661743164,
					1
				],
				"metallicFactor":0,
				"roughnessFactor":0.5
			}
		},
		{
			"doubleSided":true,
			"name":"Material.002",
			"pbrMetallicRoughness":{
				"baseColorFactor":[
					0.8000000715255737,
					0.0629461407661438,
					0.1289859563112259,
					1
				],
				"metallicFactor":0,
				"roughnessFactor":0.5
			}
		},
		{
			"doubleSided":true,
			"name":"Material.003",
			"pbrMetallicRoughness":{
				"baseColorFactor":[
					0.06325221061706543,
					0.0321921780705452,
					0.8000000715255737,
					1
				],
				"metallicFactor":0,
				"roughnessFactor":0.5
			}
		}
	],
	"meshes":[
		{
			"name":"Cube.001",
			"primitives":[
				{
					"attributes":{
						"POSITION":0,
						"TEXCOORD_0":1,
						"NORMAL":2
					},
					"indices":3,
					"material":0
				},
				{
					"attributes":{
						"POSITION":4,
						"TEXCOORD_0":5,
						"NORMAL":6
					},
					"indices":7,
					"material":1
				},
				{
					"attributes":{
						"POSITION":8,
						"TEXCOORD_0":9,
						"NORMAL":10
					},
					"indices":11,
					"material":2
				}
			]
		}
	],
	"accessors":[
		{
			"bufferView":0,
			"componentType":5126,
			"count":104,
			"max":[
				1.1529144048690796,
				6.120882034301758,
				1.1529144048690796
			],
			"min":[
				-1.1529144048690796,
				-1,
				-1.1529144048690796
			],
			"type":"VEC3"
		},
		{
			"bufferView":1,
			"componentType":5126,
			"count":104,
			"type":"VEC2"
		},
		{
			"bufferView":2,
			"componentType":5126,
			"count":104,
			"type":"VEC3"
		},
		{
			"bufferView":3,
			"componentType":5123,
			"count":180,
			"type":"SCALAR"
		},
		{
			"bufferView":4,
			"componentType":5126,
			"count":16,
			"max":[
				1.1529144048690796,
				5.319239616394043,
				1.1529144048690796
			],
			"min":[
				-1.1529144048690796,
				4.884151458740234,
				-1.1529144048690796
			],
			"type":"VEC3"
		},
		{
			"bufferView":5,
			"componentType":5126,
			"count":16,
			"type":"VEC2"
		},
		{
			"bufferView":6,
			"componentType":5126,
			"count":16,
			"type":"VEC3"
		},
		{
			"bufferView":7,
			"componentType":5123,
			"count":24,
			"type":"SCALAR"
		},
		{
			"bufferView":8,
			"componentType":5126,
			"count":16,
			"max":[
				1,
				0.3399433195590973,
				1
			],
			"min":[
				-1,
				-0.3399433195590973,
				-1
			],
			"type":"VEC3"
		},
		{
			"bufferView":9,
			"componentType":5126,
			"count":16,
			"type":"VEC2"
		},
		{
			"bufferView":10,
			"componentType":5126,
			"count":16,
			"type":"VEC3"
		},
		{
			"bufferView":11,
			"componentType":5123,
			"count":24,
			"type":"SCALAR"
		}
	],
	"bufferViews":[
		{
			"buffer":0,
			"byteLength":1248,
			"byteOffset":0,
			"target":34962
		},
		{
			"buffer":0,
			"byteLength":832,
			"byteOffset":1248,
			"target":34962
		},
		{
			"buffer":0,
			"byteLength":1248,
			"byteOffset":2080,
			"target":34962
		},
		{
			"buffer":0,
			"byteLength":360,
			"byteOffset":3328,
			"target":34963
		},
		{
			"buffer":0,
			"byteLength":192,
			"byteOffset":3688,
			"target":34962
		},
		{
			"buffer":0,
			"byteLength":128,
			"byteOffset":3880,
			"target":34962
		},
		{
			"buffer":0,
			"byteLength":192,
			"byteOffset":4008,
			"target":34962
		},
		{
			"buffer":0,
			"byteLength":48,
			"byteOffset":4200,
			"target":34963
		},
		{
			"buffer":0,
			"byteLength":192,
			"byteOffset":4248,
			"target":34962
		},
		{
			"buffer":0,
			"byteLength":128,
			"byteOffset":4440,
			"target":34962
		},
		{
			"buffer":0,
			"byteLength":192,
			"byteOffset":4568,
			"target":34962
		},
		{
			"buffer":0,
			"byteLength":48,
			"byteOffset":4760,
			"target":34963
		}
	],
	"buffers":[
		{
			"byteLength":4808,
			"uri":"data:application/octet-stream;base64,"
		}
	]
}
